<svg aria-hidden="true" style="width:0;height:0;position:absolute;overflow:hidden" xmlns="http://www.w3.org/2000/svg"><defs><symbol id="icon-open-mobile-menu" viewBox="0 0 32 32"><path stroke="#fff" style="stroke:var(--color1,#fff)" stroke-linecap="round" stroke-width="2" d="M6 10h20M6 16h20M6 22h20"/></symbol><symbol id="icon-close-mobile-menu" viewBox="0 0 32 32"><path style="fill:var(--color2,#fcfcfc)" d="M23.884 6.706 16 14.59 8.116 6.706a.996.996 0 0 0-1.672.736c0 .26.099.497.262.674l-.001-.001 7.88 7.884-7.882 7.882a.998.998 0 0 0 1.41 1.412l7.886-7.882 7.884 7.884a.996.996 0 0 0 1.672-.736.992.992 0 0 0-.262-.674l.001.001-7.884-7.884 7.884-7.886a.998.998 0 0 0-1.41-1.412v.002z"/></symbol><symbol id="icon-mouse" viewBox="0 0 19 24" fill="none"><path d="m6.047 2.012 10.934 10.205c1.871 1.746.837 4.883-1.706 5.174l-4.118.47a5 5 0 0 0-2.777 1.251l-2.373 2.136C4.077 22.986 1 21.616 1 19.018V4.206C1 1.582 4.13.222 6.047 2.012Z" stroke="#131313" stroke-width="2"/></symbol></defs></svg>