<svg aria-hidden="true" style="width:0;height:0;position:absolute;overflow:hidden" xmlns="http://www.w3.org/2000/svg"><defs><symbol id="icon-open-mobile-menu" viewBox="0 0 32 32"><path stroke="#fff" style="stroke:var(--color1,#fff)" stroke-linecap="round" stroke-width="2" d="M6 10h20M6 16h20M6 22h20"/></symbol><symbol id="icon-close-mobile-menu" viewBox="0 0 32 32"><path style="fill:var(--color2,#fcfcfc)" d="M23.884 6.706 16 14.59 8.116 6.706a.996.996 0 0 0-1.672.736c0 .26.099.497.262.674l-.001-.001 7.88 7.884-7.882 7.882a.998.998 0 0 0 1.41 1.412l7.886-7.882 7.884 7.884a.996.996 0 0 0 1.672-.736.992.992 0 0 0-.262-.674l.001.001-7.884-7.884 7.884-7.886a.998.998 0 0 0-1.41-1.412v.002z"/></symbol><symbol id="icon-mouse" viewBox="0 0 19 24" fill="none"><path d="m6.047 2.012 10.934 10.205c1.871 1.746.837 4.883-1.706 5.174l-4.118.47a5 5 0 0 0-2.777 1.251l-2.373 2.136C4.077 22.986 1 21.616 1 19.018V4.206C1 1.582 4.13.222 6.047 2.012Z" stroke="#131313" stroke-width="2"/></symbol><symbol id="about__icon" viewBox="0 0 12 12" fill="none"><path d="m4 2 4.948 4L4 10" stroke="currentColor" stroke-width="2" stroke-linecap="round" stroke-linejoin="round"/></symbol></defs><svg id="buy-icon" width="12" height="12" fill="none" xmlns="http://www.w3.org/2000/svg"><path d="m4 2 4.95 4L4 10" stroke="#131313" stroke-width="2" stroke-linecap="round" stroke-linejoin="round"/><svg aria-hidden="true" style="width:0;height:0;position:absolute;overflow:hidden" xmlns="http://www.w3.org/2000/svg"><defs><symbol id="icon-hero__button-foc" viewBox="0 0 69 32"><path d="M68.08 17.413c.361-.362.585-.861.585-1.413s-.224-1.052-.585-1.413L55.353 1.858a2.001 2.001 0 0 0-2.83 2.83l11.316 11.313-11.315 11.313a2.001 2.001 0 0 0 2.83 2.83l12.728-12.728zM0 18h66.667v-4H0v4z"/></symbol><symbol id="icon-hero__button-hov" viewBox="0 0 102 32"><path d="M101.414 17.414c.362-.362.586-.862.586-1.414s-.224-1.052-.586-1.414L88.686 1.858a2 2 0 1 0-2.829 2.827l.001.001L97.172 16 85.858 27.314a2 2 0 0 0 2.829 2.827l-.001.001 12.728-12.728zM0 18h100v-4H0v4z"/></symbol><symbol id="icon-hero__button-simple" viewBox="0 0 82 32"><path d="M81.414 17.414c.362-.362.586-.862.586-1.414s-.224-1.052-.586-1.414L68.686 1.858a2 2 0 1 0-2.829 2.827l.001.001L77.172 16 65.858 27.314a2 2 0 0 0 2.829 2.827l-.001.001 12.728-12.728zM0 18h80v-4H0v4z"/></symbol></defs></svg><svg aria-hidden="true" style="width:0;height:0;position:absolute;overflow:hidden" xmlns="http://www.w3.org/2000/svg" xmlns:xlink="http://www.w3.org/1999/xlink"><defs><symbol id="icon-open-mobile-menu" viewBox="0 0 32 32"><path stroke="#fff" style="stroke:var(--color1,#fff)" stroke-linecap="round" stroke-width="2" d="M6 10h20M6 16h20M6 22h20"/></symbol><symbol id="icon-close-mobile-menu" viewBox="0 0 32 32"><path style="fill:var(--color2,#fcfcfc)" d="M23.884 6.706 16 14.59 8.116 6.706a.996.996 0 0 0-1.672.736c0 .26.099.497.262.674l-.001-.001 7.88 7.884-7.882 7.882a.998.998 0 0 0 1.41 1.412l7.886-7.882 7.884 7.884a.996.996 0 0 0 1.672-.736.992.992 0 0 0-.262-.674l.001.001-7.884-7.884 7.884-7.886a.998.998 0 0 0-1.41-1.412v.002z"/></symbol><symbol id="icon-mouse" viewBox="0 0 19 24" fill="none"><path d="m6.047 2.012 10.934 10.205c1.871 1.746.837 4.883-1.706 5.174l-4.118.47a5 5 0 0 0-2.777 1.251l-2.373 2.136C4.077 22.986 1 21.616 1 19.018V4.206C1 1.582 4.13.222 6.047 2.012Z" stroke="#131313" stroke-width="2"/></symbol><symbol id="icon-arrow-def" viewBox="0 0 41 16" fill="none"><path d="M40.707 8.707a1 1 0 0 0 0-1.414L34.343.929a1 1 0 1 0-1.414 1.414L38.586 8l-5.657 5.657a1 1 0 0 0 1.414 1.414l6.364-6.364ZM0 9h40V7H0v2Z" fill="#131313"/></symbol><symbol id="icon-arrow-hov" viewBox="0 0 51 16" fill="none"><path d="M50.707 8.707a1 1 0 0 0 0-1.414L44.343.929a1 1 0 1 0-1.414 1.414L48.586 8l-5.657 5.657a1 1 0 0 0 1.414 1.414l6.364-6.364ZM0 9h50V7H0v2Z" fill="#131313"/></symbol><symbol id="icon-arrow-foc" viewBox="0 0 52 24" fill="none"><path d="M51.06 13.06a1.5 1.5 0 0 0 0-2.12l-9.545-9.547a1.5 1.5 0 1 0-2.122 2.122L47.88 12l-8.486 8.485a1.5 1.5 0 1 0 2.122 2.122l9.546-9.546ZM0 13.5h50v-3H0v3Z" fill="#131313"/></symbol></defs></svg></svg></svg>